<?xml version="1.0" encoding="UTF-8"?>
<svg xmlns="http://www.w3.org/2000/svg" viewBox="0 0 512 512" role="img" aria-label="UAL">
  <rect width="512" height="512" fill="#000000"/>
  <rect x="360" y="40" width="96" height="96" fill="#ff5000"/>
  <g transform="translate(106, 196) scale(4.55)">
    <path fill="#ffffff" d="M20.0792 29.4049H14.6682V26.4293H14.5363C13.0845 28.8098 10.6034 29.973 8.17502 29.973C2.13053 29.973 0.599609 26.4834 0.599609 21.2083V8.11546H6.30097V20.1533C6.30097 23.643 7.30398 25.3743 9.9699 25.3743C13.0581 25.3743 14.3779 23.6159 14.3779 19.2877V8.11546H20.0792V29.4049Z"/>
    <path fill="#ffffff" d="M23.8796 14.6619C24.1963 9.19747 28.9738 7.54733 33.6458 7.54733C37.7898 7.54733 42.7785 8.49413 42.7785 13.6068V24.6979C42.7785 26.6456 42.9897 28.5663 43.4912 29.4319H37.7106C37.4995 28.7827 37.3411 28.0793 37.3147 27.376C35.4935 29.3237 32.8539 30 30.32 30C26.3871 30 23.2461 27.9711 23.2461 23.6159C23.2461 18.8007 26.783 17.6375 30.32 17.1506C33.8042 16.6096 37.0772 16.7448 37.0772 14.3372C37.0772 11.8215 35.3879 11.4427 33.3818 11.4427C31.2174 11.4427 29.7921 12.3354 29.6073 14.6619H23.8796ZM37.0508 18.9901C36.0741 19.8557 34.0681 19.8828 32.2996 20.2344C30.5312 20.6132 28.9211 21.2353 28.9211 23.3724C28.9211 25.5636 30.5576 26.0775 32.4052 26.0775C36.866 26.0775 37.0244 22.4527 37.0244 21.1812V18.9901H37.0508Z"/>
    <path fill="#ffffff" d="M47.1348 0H52.8361V29.4049H47.1348V0Z"/>
    <path fill="#ffffff" d="M65.453 14.8242H59.1445V8.46714H65.453V14.8242ZM59.1445 23.0478H65.453V29.3779H59.1445V23.0478Z"/>
  </g>
</svg>
